<svg width="24" height="25" viewBox="0 0 24 25" fill="none" xmlns="http://www.w3.org/2000/svg">
<g id="heart">
<path id="Union" d="M12.7637 5.77531L13.2127 6.22439L12.7637 5.77531ZM20.0059 5.77531L20.455 5.32624V5.32624L20.0059 5.77531ZM11.7529 6.7861L11.3038 7.23518L12.2019 7.23518L11.7529 6.7861ZM10.7422 5.77543L11.1913 5.32636V5.32636L10.7422 5.77543ZM3.49992 5.77543L3.05085 5.32635L3.49992 5.77543ZM3.49992 13.0177L3.05085 13.4668L3.49992 13.0177ZM11.7298 21.2475L11.2807 21.6966L12.1789 21.6966L11.7298 21.2475ZM11.753 21.2243L12.2021 20.7753L11.3039 20.7753L11.753 21.2243ZM11.7761 21.2474L11.327 21.6965H12.2251L11.7761 21.2474ZM20.0059 13.0176L20.455 13.4667L20.0059 13.0176ZM13.2127 6.22439C14.9646 4.47251 17.805 4.47251 19.5568 6.22439L20.455 5.32624C18.2071 3.07833 14.5625 3.07833 12.3146 5.32624L13.2127 6.22439ZM12.2019 7.23518L13.2127 6.22439L12.3146 5.32624L11.3038 6.33703L12.2019 7.23518ZM10.2931 6.2245L11.3038 7.23518L12.2019 6.33703L11.1913 5.32636L10.2931 6.2245ZM3.949 6.2245C5.70088 4.47262 8.54124 4.47262 10.2931 6.2245L11.1913 5.32636C8.94335 3.07844 5.29876 3.07844 3.05085 5.32635L3.949 6.2245ZM3.949 12.5686C2.19712 10.8167 2.19712 7.97638 3.949 6.2245L3.05085 5.32635C0.802936 7.57427 0.802936 11.2189 3.05085 13.4668L3.949 12.5686ZM12.1788 20.7985L3.949 12.5686L3.05085 13.4668L11.2807 21.6966L12.1788 20.7985ZM11.3039 20.7753L11.2807 20.7985L12.1789 21.6966L12.2021 21.6734L11.3039 20.7753ZM12.2251 20.7984L12.2021 20.7753L11.3039 21.6734L11.327 21.6965L12.2251 20.7984ZM19.5568 12.5685L11.327 20.7984L12.2251 21.6965L20.455 13.4667L19.5568 12.5685ZM19.5568 6.22439C21.3087 7.97627 21.3087 10.8166 19.5568 12.5685L20.455 13.4667C22.7029 11.2187 22.7029 7.57415 20.455 5.32624L19.5568 6.22439Z" fill="black"/>
</g>
</svg>
