<svg width="32" height="32" viewBox="0 0 32 32" fill="none" xmlns="http://www.w3.org/2000/svg">
<mask id="path-1-inside-1_45_213" fill="white">
<path fill-rule="evenodd" clip-rule="evenodd" d="M26.6666 12L15.9999 5.33331L5.33325 12V26.6666H26.6666V12ZM17.9999 26.6666V21.3333H13.9999V26.6666H17.9999Z"/>
</mask>
<path d="M15.9999 5.33331L16.7949 4.06132L15.9999 3.56444L15.2049 4.06132L15.9999 5.33331ZM26.6666 12H28.1666V11.1686L27.4616 10.728L26.6666 12ZM5.33325 12L4.53825 10.728L3.83325 11.1686V12H5.33325ZM5.33325 26.6666H3.83325V28.1666H5.33325V26.6666ZM26.6666 26.6666V28.1666H28.1666V26.6666H26.6666ZM17.9999 21.3333H19.4999V19.8333H17.9999V21.3333ZM17.9999 26.6666V28.1666H19.4999V26.6666H17.9999ZM13.9999 21.3333V19.8333H12.4999V21.3333H13.9999ZM13.9999 26.6666H12.4999V28.1666H13.9999V26.6666ZM15.2049 6.60531L25.8716 13.272L27.4616 10.728L16.7949 4.06132L15.2049 6.60531ZM6.12825 13.272L16.7949 6.60531L15.2049 4.06132L4.53825 10.728L6.12825 13.272ZM6.83325 26.6666V12H3.83325V26.6666H6.83325ZM26.6666 25.1666H5.33325V28.1666H26.6666V25.1666ZM25.1666 12V26.6666H28.1666V12H25.1666ZM16.4999 21.3333V26.6666H19.4999V21.3333H16.4999ZM13.9999 22.8333H17.9999V19.8333H13.9999V22.8333ZM15.4999 26.6666V21.3333H12.4999V26.6666H15.4999ZM17.9999 25.1666H13.9999V28.1666H17.9999V25.1666Z" fill="black" mask="url(#path-1-inside-1_45_213)"/>
</svg>
