<svg width="32" height="32" viewBox="0 0 32 32" fill="none" xmlns="http://www.w3.org/2000/svg">
<circle cx="16" cy="9.33331" r="3.33333" stroke="black" stroke-width="1.33333"/>
<mask id="path-2-inside-1_45_162" fill="white">
<path fill-rule="evenodd" clip-rule="evenodd" d="M13.3333 14.6667H18.6666L26.6666 21.3334V26.6667H15.9999H5.33325V21.3334L13.3333 14.6667Z"/>
</mask>
<path d="M26.6666 21.3334H27.9999V20.7089L27.5202 20.3091L26.6666 21.3334ZM13.3333 14.6667V13.3334H12.8505L12.4797 13.6424L13.3333 14.6667ZM26.6666 26.6667V28H27.9999V26.6667H26.6666ZM5.33325 26.6667H3.99992V28H5.33325V26.6667ZM5.33325 21.3334L4.47967 20.3091L3.99992 20.7089V21.3334H5.33325ZM18.6666 14.6667L19.5202 13.6424L19.1493 13.3334H18.6666V14.6667ZM25.3333 21.3334V26.6667H27.9999V21.3334H25.3333ZM6.66659 26.6667V21.3334H3.99992V26.6667H6.66659ZM12.4797 13.6424L4.47967 20.3091L6.18683 22.3576L14.1868 15.691L12.4797 13.6424ZM27.5202 20.3091L19.5202 13.6424L17.813 15.691L25.813 22.3576L27.5202 20.3091ZM18.6666 13.3334H13.3333V16H18.6666V13.3334ZM26.6666 25.3334H15.9999V28H26.6666V25.3334ZM15.9999 25.3334H5.33325V28H15.9999V25.3334Z" fill="black" mask="url(#path-2-inside-1_45_162)"/>
</svg>
