<svg width="17" height="16" viewBox="0 0 17 16" fill="none" xmlns="http://www.w3.org/2000/svg">
<path id="Vector" d="M8.5 1.9C9.66 1.9 10.6 2.84 10.6 4C10.6 5.16 9.66 6.1 8.5 6.1C7.34 6.1 6.4 5.16 6.4 4C6.4 2.84 7.34 1.9 8.5 1.9ZM8.5 10.9C11.47 10.9 14.6 12.36 14.6 13V14.1H2.4V13C2.4 12.36 5.53 10.9 8.5 10.9ZM8.5 0C6.29 0 4.5 1.79 4.5 4C4.5 6.21 6.29 8 8.5 8C10.71 8 12.5 6.21 12.5 4C12.5 1.79 10.71 0 8.5 0ZM8.5 9C5.83 9 0.5 10.34 0.5 13V16H16.5V13C16.5 10.34 11.17 9 8.5 9Z" fill="white"/>
</svg>
