<svg width="20" height="20" viewBox="0 0 20 20" fill="none" xmlns="http://www.w3.org/2000/svg">
<g id="heart">
<path id="Union" d="M2.91596 10.5401L3.32585 10.1302L2.91596 10.5401ZM2.91595 4.50482L2.50606 4.09493L2.91595 4.50482ZM9.77418 17.3983L9.36429 17.8082H10.1841L9.77418 17.3983ZM9.79335 17.3791L10.2032 16.9692H9.38346L9.79335 17.3791ZM9.81261 17.3984L9.40271 17.8083H10.2225L9.81261 17.3984ZM16.6708 10.5401L17.0807 10.95H17.0807L16.6708 10.5401ZM16.6708 4.50491L17.0807 4.09501L17.0807 4.09501L16.6708 4.50491ZM10.6356 4.50491L11.0455 4.9148L11.0455 4.9148L10.6356 4.50491ZM9.79344 5.34706L9.38354 5.75696L10.2033 5.75696L9.79344 5.34706ZM8.9512 4.50482L9.36109 4.09493L8.9512 4.50482ZM3.32585 10.1302C1.88564 8.68996 1.88564 6.35492 3.32585 4.91472L2.50606 4.09493C0.613095 5.98789 0.6131 9.057 2.50606 10.95L3.32585 10.1302ZM10.1841 16.9884L3.32585 10.1302L2.50606 10.95L9.36429 17.8082L10.1841 16.9884ZM9.38346 16.9692L9.36429 16.9884L10.1841 17.8082L10.2032 17.789L9.38346 16.9692ZM10.2225 16.9885L10.2032 16.9692L9.38346 17.789L9.40271 17.8083L10.2225 16.9885ZM16.2609 10.1303L9.40271 16.9885L10.2225 17.8083L17.0807 10.95L16.2609 10.1303ZM16.2609 4.9148C17.7011 6.35501 17.7011 8.69005 16.2609 10.1303L17.0807 10.95C18.9737 9.05708 18.9737 5.98798 17.0807 4.09501L16.2609 4.9148ZM11.0455 4.9148C12.4857 3.47459 14.8207 3.47459 16.2609 4.9148L17.0807 4.09501C15.1878 2.20205 12.1187 2.20205 10.2257 4.09502L11.0455 4.9148ZM10.2033 5.75696L11.0455 4.9148L10.2257 4.09502L9.38354 4.93717L10.2033 5.75696ZM8.5413 4.91472L9.38354 5.75696L10.2033 4.93717L9.36109 4.09493L8.5413 4.91472ZM3.32585 4.91472C4.76606 3.47451 7.10109 3.47451 8.5413 4.91472L9.36109 4.09493C7.46813 2.20197 4.39902 2.20196 2.50606 4.09493L3.32585 4.91472Z" fill="white"/>
</g>
</svg>
