<svg width="25" height="24" viewBox="0 0 25 24" fill="none" xmlns="http://www.w3.org/2000/svg">
<path d="M3.83398 11C3.83398 7.229 3.83398 5.343 5.00598 4.172C6.17698 3 8.06298 3 11.834 3H13.834C17.605 3 19.491 3 20.662 4.172C21.834 5.343 21.834 7.229 21.834 11V13C21.834 16.771 21.834 18.657 20.662 19.828C19.491 21 17.605 21 13.834 21H11.834C8.06298 21 6.17698 21 5.00598 19.828C3.83398 18.657 3.83398 16.771 3.83398 13V11Z" stroke="black" stroke-width="1.4906"/>
<path d="M17.334 9C18.1624 9 18.834 8.32843 18.834 7.5C18.834 6.67157 18.1624 6 17.334 6C16.5056 6 15.834 6.67157 15.834 7.5C15.834 8.32843 16.5056 9 17.334 9Z" fill="black"/>
<path d="M12.834 15.5C14.767 15.5 16.334 13.933 16.334 12C16.334 10.067 14.767 8.5 12.834 8.5C10.901 8.5 9.33398 10.067 9.33398 12C9.33398 13.933 10.901 15.5 12.834 15.5Z" stroke="black" stroke-width="1.4906"/>
</svg>
