<svg width="18" height="18" viewBox="0 0 18 18" fill="none" xmlns="http://www.w3.org/2000/svg">
<path d="M16.0575 8.685L9.3075 1.935C9.0375 1.665 8.6625 1.5 8.25 1.5H3C2.175 1.5 1.5 2.175 1.5 3V8.25C1.5 8.6625 1.665 9.0375 1.9425 9.315L8.6925 16.065C8.9625 16.335 9.3375 16.5 9.75 16.5C10.1625 16.5 10.5375 16.335 10.8075 16.0575L16.0575 10.8075C16.335 10.5375 16.5 10.1625 16.5 9.75C16.5 9.3375 16.3275 8.955 16.0575 8.685ZM9.75 15.0075L3 8.25V3H8.25V2.9925L15 9.7425L9.75 15.0075Z" fill="#8E8E8E"/>
<path d="M4.875 6C5.49632 6 6 5.49632 6 4.875C6 4.25368 5.49632 3.75 4.875 3.75C4.25368 3.75 3.75 4.25368 3.75 4.875C3.75 5.49632 4.25368 6 4.875 6Z" fill="#8E8E8E"/>
<path d="M6.675 9.4125C6.675 9.84 6.8475 10.215 7.125 10.5L9.75 13.125L12.375 10.5C12.6525 10.2225 12.825 9.8325 12.825 9.4125C12.825 8.565 12.135 7.875 11.2875 7.875C10.86 7.875 10.4775 8.0475 10.2 8.325L9.75 8.775L9.3 8.3325C9.0225 8.0475 8.6325 7.875 8.2125 7.875C7.365 7.875 6.675 8.565 6.675 9.4125Z" fill="#8E8E8E"/>
</svg>
