<svg width="32" height="32" viewBox="0 0 32 32" fill="none" xmlns="http://www.w3.org/2000/svg">
<g id="button_heart">
<path id="Union" d="M5.8455 16.7564L6.41119 16.1907L5.8455 16.7564ZM5.8455 7.8455L6.41118 8.41118L5.8455 7.8455ZM15.9715 26.8823L15.4058 27.448H16.5372L15.9715 26.8823ZM15.9999 26.8539L16.5656 26.2883H15.4342L15.9999 26.8539ZM16.0285 26.8826L15.4628 27.4483H16.5942L16.0285 26.8826ZM26.1545 7.84575L25.5888 8.41143V8.41143L26.1545 7.84575ZM17.2436 7.84575L16.6779 7.28006V7.28006L17.2436 7.84575ZM16.0001 9.08926L15.4344 9.65494L16.5658 9.65494L16.0001 9.08926ZM14.7564 7.8455L14.1907 8.41119L14.7564 7.8455ZM6.41119 16.1907C4.26294 14.0424 4.26294 10.5594 6.41118 8.41118L5.27981 7.27981C2.50673 10.0529 2.50673 14.549 5.27982 17.322L6.41119 16.1907ZM16.5372 26.3167L6.41119 16.1907L5.27981 17.322L15.4058 27.448L16.5372 26.3167ZM15.4342 26.2883L15.4058 26.3167L16.5372 27.448L16.5656 27.4196L15.4342 26.2883ZM16.5942 26.3169L16.5656 26.2883L15.4342 27.4196L15.4628 27.4483L16.5942 26.3169ZM25.5888 16.1909L15.4628 26.3169L16.5942 27.4483L26.7202 17.3223L25.5888 16.1909ZM25.5888 8.41143C27.737 10.5597 27.737 14.0427 25.5888 16.1909L26.7202 17.3223C29.4933 14.5492 29.4933 10.0531 26.7202 7.28006L25.5888 8.41143ZM17.8093 8.41143C19.9576 6.26319 23.4406 6.26319 25.5888 8.41143L26.7202 7.28006C23.9471 4.50697 19.451 4.50698 16.6779 7.28006L17.8093 8.41143ZM16.5658 9.65494L17.8093 8.41143L16.6779 7.28006L15.4344 8.52357L16.5658 9.65494ZM14.1907 8.41119L15.4344 9.65494L16.5658 8.52357L15.322 7.27981L14.1907 8.41119ZM6.41118 8.41118C8.55943 6.26294 12.0424 6.26294 14.1907 8.41119L15.322 7.27981C12.549 4.50673 8.0529 4.50673 5.27981 7.27981L6.41118 8.41118Z" fill="white"/>
</g>
</svg>
