<svg width="57" height="56" viewBox="0 0 57 56" fill="none" xmlns="http://www.w3.org/2000/svg">
<rect x="1" y="0.5" width="55" height="55" rx="27.5" fill="white"/>
<rect x="1" y="0.5" width="55" height="55" rx="27.5" stroke="url(#paint0_linear_3024_9544)"/>
<path d="M31.875 21.1188C30.57 21.1188 29.3175 21.7263 28.5 22.6863C27.6825 21.7263 26.43 21.1188 25.125 21.1188C22.815 21.1188 21 22.9338 21 25.2438C21 28.0788 23.55 30.3888 27.4125 33.8988L28.5 34.8813L29.5875 33.8913C33.45 30.3888 36 28.0788 36 25.2438C36 22.9338 34.185 21.1188 31.875 21.1188ZM28.575 32.7813L28.5 32.8563L28.425 32.7813C24.855 29.5488 22.5 27.4113 22.5 25.2438C22.5 23.7438 23.625 22.6188 25.125 22.6188C26.28 22.6188 27.405 23.3613 27.8025 24.3888H29.205C29.595 23.3613 30.72 22.6188 31.875 22.6188C33.375 22.6188 34.5 23.7438 34.5 25.2438C34.5 27.4113 32.145 29.5488 28.575 32.7813Z" fill="#8E8E8E"/>
<defs>
<linearGradient id="paint0_linear_3024_9544" x1="1.06" y1="2.7451" x2="59.288" y2="6.19466" gradientUnits="userSpaceOnUse">
<stop stop-color="#FF2389"/>
<stop offset="1" stop-color="#F27575"/>
</linearGradient>
</defs>
</svg>
