<svg width="60" height="60" viewBox="0 0 60 60" fill="none" xmlns="http://www.w3.org/2000/svg">
<g filter="url(#filter0_b_2165_9052)">
<path fill-rule="evenodd" clip-rule="evenodd" d="M30 60C46.5685 60 60 46.5685 60 30C60 13.4315 46.5685 0 30 0C13.4315 0 0 13.4315 0 30C0 46.5685 13.4315 60 30 60ZM26.3744 25.0097L29.2558 17.7063H30.7442L33.6256 25.0097L41.4619 25.4932L41.9219 26.9087L35.8663 31.906L37.828 39.5082L36.6239 40.383L30 36.1681L23.3761 40.383L22.1719 39.5082L24.1337 31.906L18.0781 26.9087L18.5381 25.4932L26.3744 25.0097Z" fill="white"/>
</g>
<defs>
<filter id="filter0_b_2165_9052" x="-15" y="-15" width="90" height="90" filterUnits="userSpaceOnUse" color-interpolation-filters="sRGB">
<feFlood flood-opacity="0" result="BackgroundImageFix"/>
<feGaussianBlur in="BackgroundImageFix" stdDeviation="7.5"/>
<feComposite in2="SourceAlpha" operator="in" result="effect1_backgroundBlur_2165_9052"/>
<feBlend mode="normal" in="SourceGraphic" in2="effect1_backgroundBlur_2165_9052" result="shape"/>
</filter>
</defs>
</svg>
