<svg width="60" height="60" viewBox="0 0 60 60" fill="none" xmlns="http://www.w3.org/2000/svg">
<g filter="url(#filter0_b_2165_9051)">
<path fill-rule="evenodd" clip-rule="evenodd" d="M30 60C46.5685 60 60 46.5685 60 30C60 13.4315 46.5685 0 30 0C13.4315 0 0 13.4315 0 30C0 46.5685 13.4315 60 30 60ZM19.8453 30.7564C17.3846 28.2957 17.3846 24.3062 19.8453 21.8455C22.3059 19.3849 26.2955 19.3849 28.7561 21.8455L29.9999 23.0893L31.2434 21.8458C33.7041 19.3851 37.6936 19.3851 40.1543 21.8458C42.6149 24.3064 42.6149 28.296 40.1543 30.7566L30.0283 40.8826L29.9996 40.854L29.9712 40.8824L19.8453 30.7564Z" fill="white"/>
</g>
<defs>
<filter id="filter0_b_2165_9051" x="-15" y="-15" width="90" height="90" filterUnits="userSpaceOnUse" color-interpolation-filters="sRGB">
<feFlood flood-opacity="0" result="BackgroundImageFix"/>
<feGaussianBlur in="BackgroundImageFix" stdDeviation="7.5"/>
<feComposite in2="SourceAlpha" operator="in" result="effect1_backgroundBlur_2165_9051"/>
<feBlend mode="normal" in="SourceGraphic" in2="effect1_backgroundBlur_2165_9051" result="shape"/>
</filter>
</defs>
</svg>
