<svg width="20" height="22" viewBox="0 0 20 22" fill="none" xmlns="http://www.w3.org/2000/svg">
<g id="Group 43">
<circle id="Ellipse 7" cx="10.062" cy="5.27194" r="3.79484" stroke="black" stroke-width="1.19248"/>
<g id="Subtract">
<mask id="path-2-inside-1_976_559" fill="white">
<path fill-rule="evenodd" clip-rule="evenodd" d="M7.96083 11.125H12.5255L19.9142 16.2862V21.212H10.0626H0.210938V16.2862L7.96083 11.125Z"/>
</mask>
<path d="M19.9142 16.2862H21.1067V15.6645L20.5971 15.3086L19.9142 16.2862ZM7.96083 11.125V9.93252H7.60009L7.29984 10.1325L7.96083 11.125ZM19.9142 21.212V22.4045H21.1067V21.212H19.9142ZM0.210938 21.212H-0.981541V22.4045H0.210938V21.212ZM0.210938 16.2862L-0.450049 15.2936L-0.981541 15.6476V16.2862H0.210938ZM12.5255 11.125L13.2083 10.1474L12.9007 9.93252H12.5255V11.125ZM18.7217 16.2862V21.212H21.1067V16.2862H18.7217ZM1.40342 21.212V16.2862H-0.981541V21.212H1.40342ZM7.29984 10.1325L-0.450049 15.2936L0.871924 17.2787L8.62181 12.1175L7.29984 10.1325ZM20.5971 15.3086L13.2083 10.1474L11.8426 12.1026L19.2313 17.2638L20.5971 15.3086ZM12.5255 9.93252H7.96083V12.3175H12.5255V9.93252ZM19.9142 20.0195H10.0626V22.4045H19.9142V20.0195ZM10.0626 20.0195H0.210938V22.4045H10.0626V20.0195Z" fill="black" mask="url(#path-2-inside-1_976_559)"/>
</g>
</g>
</svg>
