<svg width="18" height="18" viewBox="0 0 18 18" fill="none" xmlns="http://www.w3.org/2000/svg">
<path d="M12.375 2.11875C11.07 2.11875 9.8175 2.72625 9 3.68625C8.1825 2.72625 6.93 2.11875 5.625 2.11875C3.315 2.11875 1.5 3.93375 1.5 6.24375C1.5 9.07875 4.05 11.3888 7.9125 14.8988L9 15.8813L10.0875 14.8913C13.95 11.3888 16.5 9.07875 16.5 6.24375C16.5 3.93375 14.685 2.11875 12.375 2.11875ZM9.075 13.7813L9 13.8563L8.925 13.7813C5.355 10.5488 3 8.41125 3 6.24375C3 4.74375 4.125 3.61875 5.625 3.61875C6.78 3.61875 7.905 4.36125 8.3025 5.38875H9.705C10.095 4.36125 11.22 3.61875 12.375 3.61875C13.875 3.61875 15 4.74375 15 6.24375C15 8.41125 12.645 10.5488 9.075 13.7813Z" fill="#8E8E8E"/>
</svg>
