<svg xmlns="http://www.w3.org/2000/svg" width="16" height="14" viewBox="0 0 16 14" fill="none">
  <path d="M14 1.75H11.6225L10.25 0.25H5.75L4.3775 1.75H2C1.175 1.75 0.5 2.425 0.5 3.25V12.25C0.5 13.075 1.175 13.75 2 13.75H14C14.825 13.75 15.5 13.075 15.5 12.25V3.25C15.5 2.425 14.825 1.75 14 1.75ZM14 12.25H2V3.25H5.0375L6.41 1.75H9.59L10.9625 3.25H14V12.25ZM8 4C5.93 4 4.25 5.68 4.25 7.75C4.25 9.82 5.93 11.5 8 11.5C10.07 11.5 11.75 9.82 11.75 7.75C11.75 5.68 10.07 4 8 4ZM8 10C6.7625 10 5.75 8.9875 5.75 7.75C5.75 6.5125 6.7625 5.5 8 5.5C9.2375 5.5 10.25 6.5125 10.25 7.75C10.25 8.9875 9.2375 10 8 10Z" fill="#8E8E8E"/>
</svg>