<svg width="15" height="14" viewBox="0 0 15 14" fill="none" xmlns="http://www.w3.org/2000/svg">
<path id="Vector" d="M13.5 1.75H11.1225L9.75 0.25H5.25L3.8775 1.75H1.5C0.675 1.75 0 2.425 0 3.25V12.25C0 13.075 0.675 13.75 1.5 13.75H13.5C14.325 13.75 15 13.075 15 12.25V3.25C15 2.425 14.325 1.75 13.5 1.75ZM13.5 12.25H1.5V3.25H4.5375L5.91 1.75H9.09L10.4625 3.25H13.5V12.25ZM7.5 4C5.43 4 3.75 5.68 3.75 7.75C3.75 9.82 5.43 11.5 7.5 11.5C9.57 11.5 11.25 9.82 11.25 7.75C11.25 5.68 9.57 4 7.5 4ZM7.5 10C6.2625 10 5.25 8.9875 5.25 7.75C5.25 6.5125 6.2625 5.5 7.5 5.5C8.7375 5.5 9.75 6.5125 9.75 7.75C9.75 8.9875 8.7375 10 7.5 10Z" fill="#8E8E8E"/>
</svg>
