<svg width="18" height="18" viewBox="0 0 18 18" fill="none" xmlns="http://www.w3.org/2000/svg">
<path d="M16.2002 13.6504L9.75019 8.81286V8.13036C10.9877 7.76286 11.8502 6.50286 11.5727 5.09286C11.3777 4.11036 10.5977 3.29286 9.61519 3.06786C7.90519 2.67786 6.37519 3.97536 6.37519 5.62536H7.87519C7.87519 5.00286 8.37769 4.50036 9.00019 4.50036C9.62269 4.50036 10.1252 5.00286 10.1252 5.62536C10.1252 6.25536 9.60769 6.76536 8.97769 6.75036C8.57269 6.74286 8.25019 7.08786 8.25019 7.49286V8.81286L1.80019 13.6504C1.22269 14.0854 1.53019 15.0004 2.25019 15.0004H15.7502C16.4702 15.0004 16.7777 14.0854 16.2002 13.6504ZM4.50019 13.5004L9.00019 10.1254L13.5002 13.5004H4.50019Z" fill="#8E8E8E"/>
</svg>
