// 디자인 시스템에서 variant37 아이콘
<svg xmlns="http://www.w3.org/2000/svg" width="16" height="12" viewBox="0 0 16 12" fill="none">
  <path d="M15.2 10.6512L8.75001 5.81372V5.13122C9.98751 4.76372 10.85 3.50372 10.5725 2.09372C10.3775 1.11122 9.59751 0.293717 8.61501 0.068717C6.90501 -0.321283 5.37501 0.976217 5.37501 2.62622H6.87501C6.87501 2.00372 7.37751 1.50122 8.00001 1.50122C8.62251 1.50122 9.12501 2.00372 9.12501 2.62622C9.12501 3.25622 8.60751 3.76622 7.97751 3.75122C7.57251 3.74372 7.25001 4.08872 7.25001 4.49372V5.81372L0.800011 10.6512C0.222512 11.0862 0.530011 12.0012 1.25001 12.0012H14.75C15.47 12.0012 15.7775 11.0862 15.2 10.6512ZM3.50001 10.5012L8.00001 7.12622L12.5 10.5012H3.50001Z" fill="#8E8E8E"/>
</svg>