<svg xmlns="http://www.w3.org/2000/svg" width="14" height="16" viewBox="0 0 14 16" fill="none">
  <g clip-path="url(#clip0_2562_19857)">
    <path d="M0 15.7V12.9H14V15.7H0ZM2.8 10.1H3.78L9.24 4.65405L8.729 4.14305L8.239 3.65305L2.793 9.11305V10.093L2.8 10.1ZM1.4 11.5V8.52505L9.24 0.706049C9.366 0.580049 9.52 0.475049 9.688 0.405049C9.856 0.335049 10.038 0.300049 10.22 0.300049C10.402 0.300049 10.591 0.335049 10.766 0.405049C10.941 0.475049 11.102 0.580049 11.242 0.720049L12.208 1.70005C12.348 1.82605 12.453 1.98005 12.516 2.15505C12.579 2.33005 12.614 2.51205 12.614 2.70105C12.614 2.87605 12.579 3.05105 12.516 3.21905C12.453 3.38705 12.348 3.54105 12.208 3.68105L4.375 11.5H1.4ZM9.24 4.66105L8.729 4.15005L8.239 3.66005L9.24 4.66105Z" fill="#8E8E8E"/>
  </g>
  <defs>
    <clipPath id="clip0_2562_19857">
      <rect width="14" height="15.4" fill="white" transform="translate(0 0.300049)"/>
    </clipPath>
  </defs>
</svg>