<svg width="18" height="18" viewBox="0 0 18 18" fill="none" xmlns="http://www.w3.org/2000/svg">
<g clip-path="url(#clip0_2562_19856)">
<path d="M2 16.7V13.9H16V16.7H2ZM4.8 11.1H5.78L11.24 5.65405L10.729 5.14305L10.239 4.65305L4.793 10.113V11.093L4.8 11.1ZM3.4 12.5V9.52505L11.24 1.70605C11.366 1.58005 11.52 1.47505 11.688 1.40505C11.856 1.33505 12.038 1.30005 12.22 1.30005C12.402 1.30005 12.591 1.33505 12.766 1.40505C12.941 1.47505 13.102 1.58005 13.242 1.72005L14.208 2.70005C14.348 2.82605 14.453 2.98005 14.516 3.15505C14.579 3.33005 14.614 3.51205 14.614 3.70105C14.614 3.87605 14.579 4.05105 14.516 4.21905C14.453 4.38705 14.348 4.54105 14.208 4.68105L6.375 12.5H3.4ZM11.24 5.66105L10.729 5.15005L10.239 4.66005L11.24 5.66105Z" fill="#8E8E8E"/>
</g>
<defs>
<clipPath id="clip0_2562_19856">
<rect width="14" height="15.4" fill="white" transform="translate(2 1.30005)"/>
</clipPath>
</defs>
</svg>
