// 디자인 시스템에서 favorite 아이콘
<svg xmlns="http://www.w3.org/2000/svg" width="16" height="14" viewBox="0 0 16 14" fill="none">
  <path d="M11.375 0.118774C10.07 0.118774 8.8175 0.726275 8 1.68627C7.1825 0.726275 5.93 0.118774 4.625 0.118774C2.315 0.118774 0.5 1.93377 0.5 4.24377C0.5 7.07877 3.05 9.38877 6.9125 12.8988L8 13.8813L9.0875 12.8913C12.95 9.38877 15.5 7.07877 15.5 4.24377C15.5 1.93377 13.685 0.118774 11.375 0.118774ZM8.075 11.7813L8 11.8563L7.925 11.7813C4.355 8.54877 2 6.41127 2 4.24377C2 2.74377 3.125 1.61877 4.625 1.61877C5.78 1.61877 6.905 2.36127 7.3025 3.38877H8.705C9.095 2.36127 10.22 1.61877 11.375 1.61877C12.875 1.61877 14 2.74377 14 4.24377C14 6.41127 11.645 8.54877 8.075 11.7813Z" fill="#8E8E8E"/>
</svg>