<svg width="85" height="21" viewBox="0 0 85 21" fill="none" xmlns="http://www.w3.org/2000/svg">
<path d="M10.8 16.68C11.232 16.68 11.624 16.568 11.976 16.344C12.328 16.12 12.632 15.752 12.888 15.24C13.144 14.712 13.336 14.032 13.464 13.2C13.608 12.352 13.68 11.312 13.68 10.08C13.68 8.848 13.608 7.816 13.464 6.984C13.336 6.136 13.144 5.456 12.888 4.944C12.632 4.416 12.328 4.04 11.976 3.816C11.624 3.592 11.232 3.48 10.8 3.48C10.368 3.48 9.976 3.592 9.624 3.816C9.272 4.04 8.968 4.416 8.712 4.944C8.456 5.456 8.256 6.136 8.112 6.984C7.984 7.816 7.92 8.848 7.92 10.08C7.92 11.312 7.984 12.352 8.112 13.2C8.256 14.032 8.456 14.712 8.712 15.24C8.968 15.752 9.272 16.12 9.624 16.344C9.976 16.568 10.368 16.68 10.8 16.68ZM0.72 10.08C0.72 8.224 0.96 6.664 1.44 5.4C1.92 4.12 2.6 3.088 3.48 2.304C4.376 1.52 5.44 0.96 6.672 0.623999C7.92 0.287999 9.296 0.119998 10.8 0.119998C12.32 0.119998 13.696 0.287999 14.928 0.623999C16.16 0.96 17.216 1.52 18.096 2.304C18.992 3.088 19.68 4.12 20.16 5.4C20.64 6.664 20.88 8.224 20.88 10.08C20.88 11.936 20.64 13.504 20.16 14.784C19.68 16.048 18.992 17.072 18.096 17.856C17.216 18.64 16.16 19.2 14.928 19.536C13.696 19.872 12.32 20.04 10.8 20.04C9.296 20.04 7.92 19.872 6.672 19.536C5.44 19.2 4.376 18.64 3.48 17.856C2.6 17.072 1.92 16.048 1.44 14.784C0.96 13.504 0.72 11.936 0.72 10.08ZM32.1694 16.68C32.6014 16.68 32.9934 16.568 33.3454 16.344C33.6974 16.12 34.0014 15.752 34.2574 15.24C34.5134 14.712 34.7054 14.032 34.8334 13.2C34.9774 12.352 35.0494 11.312 35.0494 10.08C35.0494 8.848 34.9774 7.816 34.8334 6.984C34.7054 6.136 34.5134 5.456 34.2574 4.944C34.0014 4.416 33.6974 4.04 33.3454 3.816C32.9934 3.592 32.6014 3.48 32.1694 3.48C31.7374 3.48 31.3454 3.592 30.9934 3.816C30.6414 4.04 30.3374 4.416 30.0814 4.944C29.8254 5.456 29.6254 6.136 29.4814 6.984C29.3534 7.816 29.2894 8.848 29.2894 10.08C29.2894 11.312 29.3534 12.352 29.4814 13.2C29.6254 14.032 29.8254 14.712 30.0814 15.24C30.3374 15.752 30.6414 16.12 30.9934 16.344C31.3454 16.568 31.7374 16.68 32.1694 16.68ZM22.0894 10.08C22.0894 8.224 22.3294 6.664 22.8094 5.4C23.2894 4.12 23.9694 3.088 24.8494 2.304C25.7454 1.52 26.8094 0.96 28.0414 0.623999C29.2894 0.287999 30.6654 0.119998 32.1694 0.119998C33.6894 0.119998 35.0654 0.287999 36.2974 0.623999C37.5294 0.96 38.5854 1.52 39.4654 2.304C40.3614 3.088 41.0494 4.12 41.5294 5.4C42.0094 6.664 42.2494 8.224 42.2494 10.08C42.2494 11.936 42.0094 13.504 41.5294 14.784C41.0494 16.048 40.3614 17.072 39.4654 17.856C38.5854 18.64 37.5294 19.2 36.2974 19.536C35.0654 19.872 33.6894 20.04 32.1694 20.04C30.6654 20.04 29.2894 19.872 28.0414 19.536C26.8094 19.2 25.7454 18.64 24.8494 17.856C23.9694 17.072 23.2894 16.048 22.8094 14.784C22.3294 13.504 22.0894 11.936 22.0894 10.08ZM45.8588 20.04C45.4268 20.04 45.0748 19.904 44.8028 19.632C44.5468 19.376 44.4188 19.032 44.4188 18.6V1.68C44.4188 1.248 44.5468 0.903999 44.8028 0.647999C45.0748 0.375999 45.4268 0.24 45.8588 0.24H53.1788C54.7468 0.24 56.1708 0.408 57.4508 0.743999C58.7308 1.08 59.8268 1.64 60.7388 2.424C61.6508 3.192 62.3548 4.208 62.8508 5.472C63.3628 6.736 63.6188 8.288 63.6188 10.128C63.6188 11.968 63.3628 13.52 62.8508 14.784C62.3548 16.048 61.6508 17.072 60.7388 17.856C59.8268 18.64 58.7308 19.2 57.4508 19.536C56.1708 19.872 54.7468 20.04 53.1788 20.04H51.6188C51.3308 20.04 51.0988 19.888 50.9228 19.584C50.7468 19.28 50.6588 18.872 50.6588 18.36C50.6588 17.848 50.7468 17.44 50.9228 17.136C51.0988 16.832 51.3308 16.68 51.6188 16.68H53.1788C53.6588 16.68 54.0988 16.568 54.4988 16.344C54.8988 16.12 55.2428 15.752 55.5308 15.24C55.8188 14.728 56.0348 14.056 56.1788 13.224C56.3388 12.376 56.4188 11.344 56.4188 10.128C56.4188 8.912 56.3388 7.888 56.1788 7.056C56.0348 6.224 55.8188 5.552 55.5308 5.04C55.2428 4.528 54.8988 4.16 54.4988 3.936C54.0988 3.712 53.6588 3.6 53.1788 3.6H51.9788C51.7388 3.6 51.6188 3.72 51.6188 3.96V15.96C51.1068 15.96 50.6988 16.184 50.3948 16.632C50.0908 17.064 49.9388 17.64 49.9388 18.36C49.9388 19.08 50.0828 19.64 50.3708 20.04H45.8588ZM67.2281 20.04C66.7961 20.04 66.4441 19.904 66.1721 19.632C65.9161 19.376 65.7881 19.032 65.7881 18.6V1.68C65.7881 1.248 65.9161 0.903999 66.1721 0.647999C66.4441 0.375999 66.7961 0.24 67.2281 0.24H74.5481C76.1161 0.24 77.5401 0.408 78.8201 0.743999C80.1001 1.08 81.1961 1.64 82.1081 2.424C83.0201 3.192 83.7241 4.208 84.2201 5.472C84.7321 6.736 84.9881 8.288 84.9881 10.128C84.9881 11.968 84.7321 13.52 84.2201 14.784C83.7241 16.048 83.0201 17.072 82.1081 17.856C81.1961 18.64 80.1001 19.2 78.8201 19.536C77.5401 19.872 76.1161 20.04 74.5481 20.04H72.9881C72.7001 20.04 72.4681 19.888 72.2921 19.584C72.1161 19.28 72.0281 18.872 72.0281 18.36C72.0281 17.848 72.1161 17.44 72.2921 17.136C72.4681 16.832 72.7001 16.68 72.9881 16.68H74.5481C75.0281 16.68 75.4681 16.568 75.8681 16.344C76.2681 16.12 76.6121 15.752 76.9001 15.24C77.1881 14.728 77.4041 14.056 77.5481 13.224C77.7081 12.376 77.7881 11.344 77.7881 10.128C77.7881 8.912 77.7081 7.888 77.5481 7.056C77.4041 6.224 77.1881 5.552 76.9001 5.04C76.6121 4.528 76.2681 4.16 75.8681 3.936C75.4681 3.712 75.0281 3.6 74.5481 3.6H73.3481C73.1081 3.6 72.9881 3.72 72.9881 3.96V15.96C72.4761 15.96 72.0681 16.184 71.7641 16.632C71.4601 17.064 71.3081 17.64 71.3081 18.36C71.3081 19.08 71.4521 19.64 71.7401 20.04H67.2281Z" fill="#FF2389"/>
</svg>