<svg width="100" height="100" viewBox="0 0 100 100" fill="none" xmlns="http://www.w3.org/2000/svg">
  <path d="M83.333 16.667V66.667H33.333V16.667H83.333ZM83.333 8.333H33.333C28.5417 8.333 25 11.875 25 16.667V66.667C25 71.458 28.5417 75 33.333 75H83.333C88.125 75 91.667 71.458 91.667 66.667V16.667C91.667 11.875 88.125 8.333 83.333 8.333ZM47.9167 48.9583L54.9583 58.0417L73.75 40.625L85.8333 62.5H33.75L47.9167 48.9583ZM8.33333 25V83.333C8.33333 88.125 11.875 91.667 16.667 91.667H75V83.333H16.667V25H8.33333Z" fill="#8E8E8E"/>
</svg>