<svg width="40" height="40" viewBox="0 0 40 40" fill="none" xmlns="http://www.w3.org/2000/svg">
<g id="a">
<path id="Vector" fill-rule="evenodd" clip-rule="evenodd" d="M13.3203 23.1295L18.7624 17.6874C19.1235 17.3263 19.7143 17.3263 20.0753 17.6874C20.4364 18.0484 20.4364 18.6393 20.0753 19.0003L14.6464 24.4293L18.0469 30.8626C18.572 31.8473 19.6289 32.4316 20.7384 32.3331C21.8544 32.2412 22.7997 31.4929 23.1542 30.4425L29.3052 11.9761C29.64 10.9718 29.3775 9.86889 28.6356 9.12709C27.8938 8.38528 26.791 8.1227 25.7866 8.45749C20.9878 10.0527 12.4013 12.9149 7.31366 14.6151C6.25676 14.9631 5.50839 15.9084 5.41648 17.0244C5.32457 18.1272 5.90226 19.1907 6.88696 19.7159L13.3203 23.1295Z" fill="url(#paint0_linear_2772_11305)"/>
</g>
<defs>
<linearGradient id="paint0_linear_2772_11305" x1="5.21301" y1="17.8879" x2="23.1155" y2="1.98853" gradientUnits="userSpaceOnUse">
<stop stop-color="#FF2389"/>
<stop offset="1" stop-color="#F27575"/>
</linearGradient>
</defs>
</svg>
