// 디자인 시스템에서 variant35 아이콘
<svg xmlns="http://www.w3.org/2000/svg" width="16" height="16" viewBox="0 0 16 16" fill="none">
  <path d="M13.5741 8.735C13.6041 8.495 13.6266 8.255 13.6266 8C13.6266 7.745 13.6041 7.505 13.5741 7.265L15.1566 6.0275C15.2991 5.915 15.3366 5.7125 15.2466 5.5475L13.7466 2.9525C13.6791 2.8325 13.5516 2.765 13.4166 2.765C13.3716 2.765 13.3266 2.7725 13.2891 2.7875L11.4216 3.5375C11.0316 3.2375 10.6116 2.99 10.1541 2.8025L9.86915 0.815C9.84665 0.635 9.68915 0.5 9.50165 0.5H6.50165C6.31415 0.5 6.15665 0.635 6.13415 0.815L5.84915 2.8025C5.39165 2.99 4.97165 3.245 4.58165 3.5375L2.71415 2.7875C2.66915 2.7725 2.62415 2.765 2.57915 2.765C2.45165 2.765 2.32415 2.8325 2.25665 2.9525L0.75665 5.5475C0.65915 5.7125 0.70415 5.915 0.84665 6.0275L2.42915 7.265C2.39915 7.505 2.37665 7.7525 2.37665 8C2.37665 8.2475 2.39915 8.495 2.42915 8.735L0.84665 9.9725C0.70415 10.085 0.66665 10.2875 0.75665 10.4525L2.25665 13.0475C2.32415 13.1675 2.45165 13.235 2.58665 13.235C2.63165 13.235 2.67665 13.2275 2.71415 13.2125L4.58165 12.4625C4.97165 12.7625 5.39165 13.01 5.84915 13.1975L6.13415 15.185C6.15665 15.365 6.31415 15.5 6.50165 15.5H9.50165C9.68915 15.5 9.84665 15.365 9.86915 15.185L10.1541 13.1975C10.6116 13.01 11.0316 12.755 11.4216 12.4625L13.2891 13.2125C13.3341 13.2275 13.3791 13.235 13.4241 13.235C13.5516 13.235 13.6791 13.1675 13.7466 13.0475L15.2466 10.4525C15.3366 10.2875 15.2991 10.085 15.1566 9.9725L13.5741 8.735ZM12.0891 7.4525C12.1191 7.685 12.1266 7.8425 12.1266 8C12.1266 8.1575 12.1116 8.3225 12.0891 8.5475L11.9841 9.395L12.6516 9.92L13.4616 10.55L12.9366 11.4575L11.9841 11.075L11.2041 10.76L10.5291 11.27C10.2066 11.51 9.89915 11.69 9.59165 11.8175L8.79665 12.14L8.67665 12.9875L8.52665 14H7.47665L7.21415 12.14L6.41915 11.8175C6.09665 11.6825 5.79665 11.51 5.49665 11.285L4.81415 10.76L4.01915 11.0825L3.06665 11.465L2.54165 10.5575L3.35165 9.9275L4.01915 9.4025L3.91415 8.555C3.89165 8.3225 3.87665 8.15 3.87665 8C3.87665 7.85 3.89165 7.6775 3.91415 7.4525L4.01915 6.605L3.35165 6.08L2.54165 5.45L3.06665 4.5425L4.01915 4.925L4.79915 5.24L5.47415 4.73C5.79665 4.49 6.10415 4.31 6.41165 4.1825L7.20665 3.86L7.32665 3.0125L7.47665 2H8.51915L8.78165 3.86L9.57665 4.1825C9.89915 4.3175 10.1991 4.49 10.4991 4.715L11.1816 5.24L11.9766 4.9175L12.9291 4.535L13.4541 5.4425L12.6516 6.08L11.9841 6.605L12.0891 7.4525ZM8.00165 5C6.34415 5 5.00165 6.3425 5.00165 8C5.00165 9.6575 6.34415 11 8.00165 11C9.65915 11 11.0016 9.6575 11.0016 8C11.0016 6.3425 9.65915 5 8.00165 5ZM8.00165 9.5C7.17665 9.5 6.50165 8.825 6.50165 8C6.50165 7.175 7.17665 6.5 8.00165 6.5C8.82665 6.5 9.50165 7.175 9.50165 8C9.50165 8.825 8.82665 9.5 8.00165 9.5Z" fill="#8E8E8E"/>
</svg>