// 디자인 시스템에서 pick 아이콘
<svg xmlns="http://www.w3.org/2000/svg" width="16" height="16" viewBox="0 0 16 16" fill="none">
  <path d="M15.0575 7.685L8.3075 0.935C8.0375 0.665 7.6625 0.5 7.25 0.5H2C1.175 0.5 0.5 1.175 0.5 2V7.25C0.5 7.6625 0.665 8.0375 0.9425 8.315L7.6925 15.065C7.9625 15.335 8.3375 15.5 8.75 15.5C9.1625 15.5 9.5375 15.335 9.8075 15.0575L15.0575 9.8075C15.335 9.5375 15.5 9.1625 15.5 8.75C15.5 8.3375 15.3275 7.955 15.0575 7.685ZM8.75 14.0075L2 7.25V2H7.25V1.9925L14 8.7425L8.75 14.0075Z" fill="#8E8E8E"/>
  <path d="M3.875 5C4.49632 5 5 4.49632 5 3.875C5 3.25368 4.49632 2.75 3.875 2.75C3.25368 2.75 2.75 3.25368 2.75 3.875C2.75 4.49632 3.25368 5 3.875 5Z" fill="#8E8E8E"/>
  <path d="M5.675 8.4125C5.675 8.84 5.8475 9.215 6.125 9.5L8.75 12.125L11.375 9.5C11.6525 9.2225 11.825 8.8325 11.825 8.4125C11.825 7.565 11.135 6.875 10.2875 6.875C9.86 6.875 9.4775 7.0475 9.2 7.325L8.75 7.775L8.3 7.3325C8.0225 7.0475 7.6325 6.875 7.2125 6.875C6.365 6.875 5.675 7.565 5.675 8.4125Z" fill="#8E8E8E"/>
</svg>