<svg width="15" height="15" viewBox="0 0 15 15" fill="none" xmlns="http://www.w3.org/2000/svg">
<path id="Vector" d="M10.875 0.618652C9.57 0.618652 8.3175 1.22615 7.5 2.18615C6.6825 1.22615 5.43 0.618652 4.125 0.618652C1.815 0.618652 0 2.43365 0 4.74365C0 7.57865 2.55 9.88865 6.4125 13.3987L7.5 14.3812L8.5875 13.3912C12.45 9.88865 15 7.57865 15 4.74365C15 2.43365 13.185 0.618652 10.875 0.618652ZM7.575 12.2812L7.5 12.3562L7.425 12.2812C3.855 9.04865 1.5 6.91115 1.5 4.74365C1.5 3.24365 2.625 2.11865 4.125 2.11865C5.28 2.11865 6.405 2.86115 6.8025 3.88865H8.205C8.595 2.86115 9.72 2.11865 10.875 2.11865C12.375 2.11865 13.5 3.24365 13.5 4.74365C13.5 6.91115 11.145 9.04865 7.575 12.2812Z" fill="white"/>
</svg>
