<svg width="107" height="28" viewBox="0 0 107 28" fill="none" xmlns="http://www.w3.org/2000/svg">
<path fill-rule="evenodd" clip-rule="evenodd" d="M0.801653 13.9881C3.26877 4.79798 8.89762 0.512451 16.9217 0.512451C24.9219 0.512451 28.2273 4.79798 25.7602 13.9881C23.2931 23.1781 17.6403 27.4875 9.64015 27.4875C1.63999 27.4875 -1.66546 23.1781 0.801653 13.9881ZM10.0234 26.059C13.1372 26.059 16.4427 23.6781 19.0535 14.0119H19.0296C21.6404 4.34562 19.6284 1.96477 16.5145 1.96477C13.4007 1.96477 10.0713 4.34562 7.46047 14.0119C4.87359 23.6781 6.90956 26.059 10.0234 26.059ZM28.2034 13.9881C30.6705 4.79798 36.2994 0.512451 44.3235 0.512451C52.3237 0.512451 55.6291 4.79798 53.162 13.9881C50.6949 23.1781 45.0421 27.4875 37.0419 27.4875C29.0418 27.4875 25.7363 23.1781 28.2034 13.9881ZM37.4252 26.059C40.539 26.059 43.8444 23.6781 46.4553 14.0119H46.4313C49.0422 4.34562 47.0301 1.96477 43.9163 1.96477C40.8025 1.96477 37.4731 4.34562 34.8622 14.0119C32.2754 23.6781 34.3113 26.059 37.4252 26.059ZM70.6236 1.48867H60.3958L53.6172 26.6542H63.845C71.8691 26.6542 77.3542 22.8687 79.7255 14.0834C82.0968 5.29803 78.6477 1.51248 70.6236 1.51248V1.48867ZM73.0188 14.0834C70.4798 23.4877 67.2462 25.5114 64.1324 25.5114H60.5874L66.7432 2.6791H70.2882C73.3781 2.6791 75.5578 4.67901 73.0188 14.1072V14.0834ZM86.9353 1.48867H97.163V1.51248C105.187 1.51248 108.636 5.29803 106.265 14.0834C103.894 22.8687 98.4086 26.6542 90.3845 26.6542H80.1567L86.9353 1.48867ZM90.6958 25.5114C93.8097 25.5114 97.0433 23.4877 99.5822 14.0834V14.1072C102.121 4.67901 99.9415 2.6791 96.8517 2.6791H93.3067L87.1509 25.5114H90.6958Z" fill="#231815"/>
</svg>
