<svg width="107" height="27" viewBox="0 0 107 27" fill="none" xmlns="http://www.w3.org/2000/svg">
<path id="Union" fill-rule="evenodd" clip-rule="evenodd" d="M0.801653 13.4756C3.26877 4.28553 8.89762 0 16.9217 0C24.9219 0 28.2273 4.28553 25.7602 13.4756C23.2931 22.6657 17.6403 26.975 9.64015 26.975C1.63999 26.975 -1.66546 22.6657 0.801653 13.4756ZM10.0234 25.5465C13.1372 25.5465 16.4427 23.1657 19.0535 13.4994H19.0296C21.6404 3.83317 19.6284 1.45232 16.5145 1.45232C13.4007 1.45232 10.0713 3.83317 7.46047 13.4994C4.87359 23.1657 6.90956 25.5465 10.0234 25.5465ZM28.2034 13.4756C30.6705 4.28553 36.2994 0 44.3235 0C52.3237 0 55.6291 4.28553 53.162 13.4756C50.6949 22.6657 45.0421 26.975 37.0419 26.975C29.0418 26.975 25.7363 22.6657 28.2034 13.4756ZM37.4252 25.5465C40.539 25.5465 43.8444 23.1657 46.4553 13.4994H46.4313C49.0422 3.83317 47.0301 1.45232 43.9163 1.45232C40.8025 1.45232 37.4731 3.83317 34.8622 13.4994C32.2754 23.1657 34.3113 25.5465 37.4252 25.5465ZM70.6236 0.97622H60.3958L53.6172 26.1418H63.845C71.8691 26.1418 77.3542 22.3562 79.7255 13.5709C82.0968 4.78558 78.6477 1.00003 70.6236 1.00003V0.97622ZM73.0188 13.5709C70.4798 22.9753 67.2462 24.999 64.1324 24.999H60.5874L66.7432 2.16664H70.2882C73.3781 2.16664 75.5578 4.16656 73.0188 13.5947V13.5709ZM86.9353 0.97622H97.163V1.00003C105.187 1.00003 108.636 4.78558 106.265 13.5709C103.894 22.3562 98.4086 26.1418 90.3845 26.1418H80.1567L86.9353 0.97622ZM90.6958 24.999C93.8097 24.999 97.0433 22.9753 99.5822 13.5709V13.5947C102.121 4.16656 99.9415 2.16664 96.8517 2.16664H93.3067L87.1509 24.999H90.6958Z" fill="#231815"/>
</svg>
