<svg width="32" height="32" viewBox="0 0 32 32" fill="none" xmlns="http://www.w3.org/2000/svg">
<g id="Home_s">
<g id="Subtract">
<mask id="path-1-inside-1_729_3106" fill="white">
<path fill-rule="evenodd" clip-rule="evenodd" d="M26.6663 11.9997L15.9997 5.33301L5.33301 11.9997V26.6663H26.6663V11.9997ZM17.9996 26.6663V21.333H13.9996V26.6663H17.9996Z"/>
</mask>
<path d="M15.9997 5.33301L16.7947 4.06101L15.9997 3.56414L15.2047 4.06101L15.9997 5.33301ZM26.6663 11.9997H28.1663V11.1683L27.4613 10.7277L26.6663 11.9997ZM5.33301 11.9997L4.53801 10.7277L3.83301 11.1683V11.9997H5.33301ZM5.33301 26.6663H3.83301V28.1663H5.33301V26.6663ZM26.6663 26.6663V28.1663H28.1663V26.6663H26.6663ZM17.9996 21.333H19.4996V19.833H17.9996V21.333ZM17.9996 26.6663V28.1663H19.4996V26.6663H17.9996ZM13.9996 21.333V19.833H12.4996V21.333H13.9996ZM13.9996 26.6663H12.4996V28.1663H13.9996V26.6663ZM15.2047 6.60501L25.8713 13.2717L27.4613 10.7277L16.7947 4.06101L15.2047 6.60501ZM6.12801 13.2717L16.7947 6.60501L15.2047 4.06101L4.53801 10.7277L6.12801 13.2717ZM6.83301 26.6663V11.9997H3.83301V26.6663H6.83301ZM26.6663 25.1663H5.33301V28.1663H26.6663V25.1663ZM25.1663 11.9997V26.6663H28.1663V11.9997H25.1663ZM16.4996 21.333V26.6663H19.4996V21.333H16.4996ZM13.9996 22.833H17.9996V19.833H13.9996V22.833ZM15.4996 26.6663V21.333H12.4996V26.6663H15.4996ZM17.9996 25.1663H13.9996V28.1663H17.9996V25.1663Z" fill="black" mask="url(#path-1-inside-1_729_3106)"/>
</g>
</g>
</svg>
