<svg width="24" height="24" viewBox="0 0 24 24" fill="none" xmlns="http://www.w3.org/2000/svg">
<g id="ep:setting">
<circle id="Ellipse 22" cx="11.6913" cy="11.6913" r="3.7411" stroke="black" stroke-width="1.29185"/>
<path id="Union" d="M9.60943 21.8926V22.5385L9.00463 22.1194L9.60943 21.8926ZM13.7773 21.8926L14.3821 22.1194L13.7773 22.5385V21.8926ZM8.38401 18.6248L8.66925 18.0453L8.98881 18.398L8.38401 18.6248ZM7.51596 18.1227L7.40997 17.4855L7.87602 17.5864L7.51596 18.1227ZM4.0718 18.6956L4.17778 19.3328L3.51241 19.0186L4.0718 18.6956ZM1.98787 15.0861L1.42849 15.4091L1.48906 14.6757L1.98787 15.0861ZM4.20684 12.3889L4.85138 12.3466L4.70565 12.7993L4.20684 12.3889ZM4.20679 11.3915L4.7056 10.9811L4.85133 11.4338L4.20679 11.3915ZM1.9873 8.69367L1.48849 9.10404L1.42792 8.37071L1.9873 8.69367ZM4.07123 5.08421L3.51184 4.76124L4.17722 4.44703L4.07123 5.08421ZM7.5156 5.65713L7.87569 6.19337L7.40962 6.2943L7.5156 5.65713ZM8.38336 5.15511L8.98816 5.38191L8.66866 5.73462L8.38336 5.15511ZM9.60912 1.88644L9.00432 1.65964L9.60912 1.24052V1.88644ZM13.777 1.88644V1.24052L14.3818 1.65964L13.777 1.88644ZM15.0029 5.1556L14.7175 5.73507L14.3981 5.3824L15.0029 5.1556ZM15.8685 5.65637L15.9745 6.29354L15.5085 6.19268L15.8685 5.65637ZM19.3135 5.08335L19.2075 4.44617L19.8729 4.76038L19.3135 5.08335ZM21.3974 8.69281L21.9568 8.36985L21.8962 9.10318L21.3974 8.69281ZM19.1784 11.3901L18.5339 11.4325L18.6796 10.9797L19.1784 11.3901ZM19.1783 12.3906L18.6795 12.801L18.5338 12.3481L19.1783 12.3906ZM21.3967 15.0871L21.8955 14.6767L21.9561 15.41L21.3967 15.0871ZM19.3128 18.6965L19.8721 19.0195L19.2068 19.3337L19.3128 18.6965ZM15.868 18.1236L15.5081 17.5872L15.974 17.4864L15.868 18.1236ZM15.003 18.6239L14.3982 18.3971L14.7176 18.0445L15.003 18.6239ZM9.60943 21.2467L13.7773 21.2467L13.7773 22.5385L9.60943 22.5385V21.2467ZM8.98881 18.398L10.2142 21.6658L9.00463 22.1194L7.77921 18.8516L8.98881 18.398ZM7.87602 17.5864C8.12907 17.7563 8.39399 17.9098 8.66925 18.0453L8.09877 19.2043C7.77142 19.0432 7.45653 18.8608 7.1559 18.659L7.87602 17.5864ZM3.96581 18.0584L7.40997 17.4855L7.62194 18.7599L4.17778 19.3328L3.96581 18.0584ZM2.54726 14.7632L4.63119 18.3726L3.51241 19.0186L1.42849 15.4091L2.54726 14.7632ZM4.70565 12.7993L2.48669 15.4965L1.48906 14.6757L3.70803 11.9786L4.70565 12.7993ZM4.83643 11.8898C4.83643 12.0434 4.84146 12.1957 4.85138 12.3466L3.5623 12.4313C3.55054 12.2522 3.54457 12.0717 3.54457 11.8898H4.83643ZM4.85133 11.4338C4.84145 11.5844 4.83643 11.7365 4.83643 11.8898H3.54457C3.54457 11.7082 3.55052 11.528 3.56224 11.3492L4.85133 11.4338ZM2.48612 8.2833L4.7056 10.9811L3.70797 11.8019L1.48849 9.10404L2.48612 8.2833ZM4.63062 5.40717L2.54669 9.01663L1.42792 8.37071L3.51184 4.76124L4.63062 5.40717ZM7.40962 6.2943L3.96525 5.72138L4.17722 4.44703L7.62159 5.01996L7.40962 6.2943ZM8.66866 5.73462C8.3935 5.87008 8.12866 6.0235 7.87569 6.19337L7.15551 5.12089C7.45604 4.91908 7.77083 4.73671 8.09807 4.57561L8.66866 5.73462ZM10.2139 2.11324L8.98816 5.38191L7.77857 4.92831L9.00432 1.65964L10.2139 2.11324ZM13.777 2.53237H9.60912V1.24052H13.777V2.53237ZM14.3981 5.3824L13.1722 2.11324L14.3818 1.65964L15.6077 4.9288L14.3981 5.3824ZM15.5085 6.19268C15.2562 6.02327 14.992 5.87024 14.7175 5.73507L15.2883 4.57614C15.6147 4.73689 15.9287 4.9188 16.2285 5.12006L15.5085 6.19268ZM19.4195 5.72052L15.9745 6.29354L15.7625 5.0192L19.2075 4.44617L19.4195 5.72052ZM20.838 9.01577L18.7541 5.40631L19.8729 4.76038L21.9568 8.36985L20.838 9.01577ZM18.6796 10.9797L20.8986 8.28244L21.8962 9.10318L19.6772 11.8005L18.6796 10.9797ZM18.5488 11.8898C18.5488 11.736 18.5438 11.5835 18.5339 11.4325L19.8229 11.3477C19.8347 11.527 19.8407 11.7077 19.8407 11.8898H18.5488ZM18.5338 12.3481C18.5438 12.1967 18.5488 12.0439 18.5488 11.8898H19.8407C19.8407 12.0723 19.8347 12.2534 19.8228 12.4331L18.5338 12.3481ZM20.8979 15.4974L18.6795 12.801L19.6771 11.9802L21.8955 14.6767L20.8979 15.4974ZM18.7534 18.3736L20.8373 14.7641L21.9561 15.41L19.8721 19.0195L18.7534 18.3736ZM15.974 17.4864L19.4187 18.0594L19.2068 19.3337L15.762 18.7607L15.974 17.4864ZM14.7176 18.0445C14.9919 17.9094 15.2559 17.7565 15.5081 17.5872L16.228 18.6599C15.9284 18.861 15.6146 19.0427 15.2884 19.2034L14.7176 18.0445ZM13.1725 21.6658L14.3982 18.3971L15.6078 18.8507L14.3821 22.1194L13.1725 21.6658Z" fill="black"/>
</g>
</svg>
