<svg width="18" height="18" viewBox="0 0 18 18" fill="none" xmlns="http://www.w3.org/2000/svg">
<path d="M12.375 2.11865C11.07 2.11865 9.8175 2.72615 9 3.68615C8.1825 2.72615 6.93 2.11865 5.625 2.11865C3.315 2.11865 1.5 3.93365 1.5 6.24365C1.5 9.07865 4.05 11.3887 7.9125 14.8987L9 15.8812L10.0875 14.8912C13.95 11.3887 16.5 9.07865 16.5 6.24365C16.5 3.93365 14.685 2.11865 12.375 2.11865ZM9.075 13.7812L9 13.8562L8.925 13.7812C5.355 10.5487 3 8.41115 3 6.24365C3 4.74365 4.125 3.61865 5.625 3.61865C6.78 3.61865 7.905 4.36115 8.3025 5.38865H9.705C10.095 4.36115 11.22 3.61865 12.375 3.61865C13.875 3.61865 15 4.74365 15 6.24365C15 8.41115 12.645 10.5487 9.075 13.7812Z" fill="#8E8E8E"/>
</svg>
